<?xml version="1.0" encoding="UTF-8"?>
<svg version="1.1" xmlns="http://www.w3.org/2000/svg" width="819" height="819">
<path d="M0 0 C270.27 0 540.54 0 819 0 C819 270.27 819 540.54 819 819 C548.73 819 278.46 819 0 819 C0 548.73 0 278.46 0 0 Z " fill="#061334" transform="translate(0,0)"/>
<path d="M0 0 C0 11.22 0 22.44 0 34 C-2.5575 35.299375 -5.115 36.59875 -7.75 37.9375 C-37.07364566 53.25105284 -57.96862931 79.03539437 -67.875 110.4375 C-68.63983233 112.95930731 -69.35333824 115.44971397 -70 118 C-70.18618896 118.69673828 -70.37237793 119.39347656 -70.56420898 120.11132812 C-72.30847764 127.48859957 -72.33806709 134.86610963 -72.31567383 142.40185547 C-72.31253505 144.60045023 -72.33597112 146.79766636 -72.36132812 148.99609375 C-72.42656371 163.02813116 -70.14151135 175.94831275 -65.375 189.1875 C-64.75518428 190.95090133 -64.13790571 192.71519693 -63.5234375 194.48046875 C-63.25450684 195.23223389 -62.98557617 195.98399902 -62.70849609 196.75854492 C-61.96102213 199.12331352 -61.48638572 201.56807139 -61 204 C-56.71 201.03 -52.42 198.06 -48 195 C-39.52673696 200.64884203 -33.38558756 207.84371179 -31 218 C-31.08984375 220.05859375 -31.08984375 220.05859375 -32 222 C-34.28515625 223.921875 -34.28515625 223.921875 -37.0625 225.75 C-37.98160156 226.36359375 -38.90070313 226.9771875 -39.84765625 227.609375 C-40.55792969 228.06828125 -41.26820313 228.5271875 -42 229 C-30.40204171 247.59484862 -6.55743381 260.35780724 14 266 C15.56814453 266.44859375 15.56814453 266.44859375 17.16796875 266.90625 C44.79879589 273.6500451 74.3525758 268.33986341 98.640625 253.91796875 C101.52219392 252.04494895 104.27126164 250.08815039 107 248 C107.86625 247.35289062 108.7325 246.70578125 109.625 246.0390625 C115.54778786 241.47057064 120.82867853 236.39616153 126 231 C124.7701036 227.3103108 123.56632876 226.89229784 120.375 224.8125 C117.92578125 222.9453125 117.92578125 222.9453125 116 221 C115.19511991 213.98604489 118.97541045 208.55177755 123 203 C127.31700954 197.69677707 127.31700954 197.69677707 130 196 C133.48538587 196.2418431 135.93207024 198.11481325 138.75 200.0625 C139.54921875 200.61035156 140.3484375 201.15820312 141.171875 201.72265625 C141.77515625 202.14417969 142.3784375 202.56570313 143 203 C150.34192835 194.06200027 152.58058922 181.09361166 155 170 C155.22816406 168.95457031 155.45632813 167.90914062 155.69140625 166.83203125 C161.49515372 135.45932638 153.45189121 102.28416182 135.5625 76.125 C131.42102351 70.36820536 126.89366079 65.1241593 122 60 C121.4121875 59.33742188 120.824375 58.67484375 120.21875 57.9921875 C116.05927935 53.48609429 111.37965377 49.93878424 106.375 46.4375 C105.76068115 46.00252197 105.1463623 45.56754395 104.51342773 45.11938477 C97.91561112 40.63253519 91.32702076 37.66351038 84 34 C84 22.78 84 11.56 84 0 C90.00873105 1.33527357 95.06578976 2.55072538 100.5625 5 C101.24159424 5.30196289 101.92068848 5.60392578 102.62036133 5.91503906 C115.79205294 11.97119827 127.4214135 20.13719043 138 30 C138.64501465 30.60118652 139.2900293 31.20237305 139.95458984 31.82177734 C164.75067628 55.20531672 180.32317883 84.52696475 187 118 C187.27034058 119.30928467 187.27034058 119.30928467 187.54614258 120.64501953 C189.11791083 128.97405984 189.35795582 137.16710327 189.3125 145.625 C189.30976578 146.6824794 189.30976578 146.6824794 189.30697632 147.76132202 C189.25913249 158.76836408 188.57364581 169.27478705 186 180 C185.83371094 180.74926758 185.66742187 181.49853516 185.49609375 182.27050781 C183.20456463 192.53570954 180.01127936 202.09337899 175.67895508 211.68334961 C173.82626949 215.80866284 172.4921449 219.44765972 172 224 C180.15815133 230.38526686 188.44625861 236.55004373 196.90576172 242.53198242 C200.5592633 245.13709837 203.96203205 247.66387605 207 251 C206.3709375 251.57105469 205.741875 252.14210938 205.09375 252.73046875 C198.22826456 259.23406867 193.61491856 265.77564794 189 274 C185.27235909 272.31713299 182.04984482 270.01021139 178.75 267.625 C178.14953857 267.19453369 177.54907715 266.76406738 176.93041992 266.32055664 C173.46513706 263.82350804 170.03562382 261.28339444 166.62890625 258.70703125 C165.90928711 258.16288574 165.18966797 257.61874023 164.44824219 257.05810547 C163.04347155 255.99216268 161.64168208 254.92227765 160.24316406 253.84814453 C159.28168457 253.11700439 159.28168457 253.11700439 158.30078125 252.37109375 C157.73528564 251.93724365 157.16979004 251.50339355 156.5871582 251.05639648 C154.86270973 249.80846002 154.86270973 249.80846002 152 249 C151.60300903 249.8815979 151.60300903 249.8815979 151.19799805 250.78100586 C138.54959699 274.20903057 105.84951511 289.0698736 82 297 C81.08089844 297.32613281 80.16179687 297.65226562 79.21484375 297.98828125 C47.33321069 308.65194926 11.37865706 303.43871311 -18.3046875 288.87890625 C-37.5346847 279.20314937 -54.13175558 266.51952644 -68 250 C-73.20953013 251.64675008 -77.22139143 254.85897657 -81.5625 258.0625 C-82.35591797 258.64088623 -83.14933594 259.21927246 -83.96679688 259.81518555 C-87.59375215 262.46601996 -91.20082113 265.14086878 -94.77734375 267.859375 C-95.32898193 268.27823975 -95.88062012 268.69710449 -96.44897461 269.12866211 C-97.90817555 270.24241394 -99.36057733 271.36505774 -100.8125 272.48828125 C-103 274 -103 274 -105 274 C-106.25038695 272.05995118 -107.4240628 270.07028925 -108.5625 268.0625 C-112.23219359 261.78770263 -116.56812095 256.86605831 -122 252 C-120.53501675 248.41377627 -118.67697517 246.69615679 -115.59765625 244.390625 C-114.71182861 243.72160156 -113.82600098 243.05257812 -112.91333008 242.36328125 C-111.97255615 241.66589844 -111.03178223 240.96851563 -110.0625 240.25 C-109.11205811 239.53714844 -108.16161621 238.82429687 -107.18237305 238.08984375 C-104.46052323 236.05223964 -101.73082255 234.02555247 -99 232 C-97.74431115 231.05793181 -96.48901945 230.11533368 -95.234375 229.171875 C-88.27652878 224 -88.27652878 224 -86 224 C-86.36182373 223.24831543 -86.36182373 223.24831543 -86.73095703 222.48144531 C-106.53365497 180.95510299 -111.43065538 135.46428898 -95.95410156 91.52099609 C-90.72539207 77.70532203 -83.80456739 64.84866099 -75 53 C-74.30648437 52.06414062 -73.61296875 51.12828125 -72.8984375 50.1640625 C-57.6624585 30.70537771 -26.98737848 0 0 0 Z " fill="#24CC7B" transform="translate(367,260)"/>
<path d="M0 0 C-0.03480469 1.26972656 -0.06960938 2.53945312 -0.10546875 3.84765625 C-0.31134968 14.72644726 0.38862799 24.39878792 3 35 C3.6774117 37.99763735 4.33978721 40.99853198 5 44 C3.96782349 44.42128174 3.96782349 44.42128174 2.91479492 44.85107422 C-22.21099911 55.15726979 -45.13606024 66.42197124 -66 84 C-66.53334961 84.44456543 -67.06669922 84.88913086 -67.61621094 85.34716797 C-79.20177801 95.01688416 -89.64828219 105.10513001 -99 117 C-99.77988281 117.96292969 -100.55976563 118.92585938 -101.36328125 119.91796875 C-125.92847667 150.83015246 -141.80798957 187.29407282 -149 226 C-149.32291016 227.71896484 -149.32291016 227.71896484 -149.65234375 229.47265625 C-151.87854269 242.0661174 -152.23800214 254.55768691 -152.25 267.3125 C-152.25133942 268.15460022 -152.25267883 268.99670044 -152.25405884 269.86431885 C-152.24975975 282.34740054 -151.69954261 294.48032959 -149.41015625 306.78320312 C-149.01693007 308.908497 -148.67360706 311.03594872 -148.34375 313.171875 C-146.94362591 321.82920339 -144.62391362 330.08726259 -141.98120117 338.43994141 C-141.7257251 339.24995605 -141.47024902 340.0599707 -141.20703125 340.89453125 C-140.9747583 341.61487549 -140.74248535 342.33521973 -140.50317383 343.07739258 C-140 345 -140 345 -140 348 C-140.83660156 348.1959375 -141.67320312 348.391875 -142.53515625 348.59375 C-155.8827576 352.02303407 -167.54020956 357.92917902 -178 367 C-180.38394179 364.61605821 -180.81507909 362.92480941 -181.8046875 359.71484375 C-182.13903809 358.63460938 -182.47338867 357.554375 -182.81787109 356.44140625 C-183.16672363 355.28511719 -183.51557617 354.12882812 -183.875 352.9375 C-184.23287598 351.761875 -184.59075195 350.58625 -184.95947266 349.375 C-187.68125473 340.31809965 -190.06807927 331.25791716 -192 322 C-192.16064941 321.27917236 -192.32129883 320.55834473 -192.48681641 319.81567383 C-207.25222765 251.05325201 -190.29425589 175.36762723 -153 116.5 C-138.63778683 94.30403108 -121.49131672 71.90627973 -101 55 C-100.08347656 54.195625 -99.16695313 53.39125 -98.22265625 52.5625 C-74.58133427 31.87587516 -32.55651453 0 0 0 Z " fill="#FBFBFC" transform="translate(333,142)"/>
<path d="M0 0 C25.77802804 7.48858915 51.19340169 18.14065577 73 34 C74.08539062 34.7425 75.17078125 35.485 76.2890625 36.25 C85.43160866 42.53470131 93.75450697 49.59107075 102 57 C102.57137695 57.50821289 103.14275391 58.01642578 103.73144531 58.54003906 C116.8324457 70.21156291 128.06185238 82.85414063 138.4921875 96.96142578 C139.87019982 98.82450914 141.26206883 100.67635701 142.65625 102.52734375 C149.08750979 111.17939793 154.49971922 120.34716274 159.74658203 129.75585938 C160.85824907 131.74620675 161.98729286 133.72535073 163.12109375 135.703125 C199.44596171 200.89785784 203.79702617 276.94177505 185 348 C183.23201544 354.08515616 181.22197331 360.06659876 179 366 C175.1198958 366 174.08910793 364.74828727 171.0625 362.375 C161.09008937 354.96767137 150.91843818 350.99724037 139 348 C140.05810018 342.95614589 141.25374932 338.00902575 142.75097656 333.078125 C146.39373302 320.94700489 148.31991855 308.53616044 150 296 C150.1045752 295.2481543 150.20915039 294.49630859 150.31689453 293.72167969 C157.17889413 236.65873565 142.09528072 176.4047517 108 130 C107.60248535 129.45520996 107.2049707 128.91041992 106.79541016 128.34912109 C93.05537551 109.66599149 77.64358435 92.84698468 59 79 C58.44763672 78.58153809 57.89527344 78.16307617 57.32617188 77.73193359 C38.40198522 63.41590927 16.8506075 51.64153836 -6 45 C-5.30522944 40.39046454 -4.17582242 36.17274193 -2.71875 31.7578125 C-0.86715396 24.653319 -0.74457368 17.29929251 -0.4375 10 C-0.39431641 9.03449219 -0.35113281 8.06898438 -0.30664062 7.07421875 C-0.20158287 4.71625575 -0.09943086 2.35820584 0 0 Z " fill="#FBFBFB" transform="translate(486,142)"/>
<path d="M0 0 C0.94101562 0.25652344 1.88203125 0.51304687 2.8515625 0.77734375 C22.23798593 6.61330843 37.67214947 20.41215144 47.46484375 37.9453125 C49.75257922 42.49749859 51.54571047 47.12020386 53 52 C53.35707031 53.17046875 53.71414063 54.3409375 54.08203125 55.546875 C59.08644704 76.12514873 54.37656424 98.21665252 44.06884766 116.24462891 C41.45844327 120.53170235 38.37512255 124.3011412 35 128 C34.47148437 128.62003906 33.94296875 129.24007812 33.3984375 129.87890625 C23.18874873 141.1196227 6.47779035 148.95884343 -8.65087891 150.22119141 C-30.46222607 151.1256676 -47.64212245 146.83861435 -64.57421875 132.234375 C-74.59510306 123.00418849 -81.81491854 110.97981785 -86 98 C-86.44666016 96.66582031 -86.44666016 96.66582031 -86.90234375 95.3046875 C-92.80479142 74.46931922 -89.18324923 52.73796087 -79.12792969 33.94482422 C-76.33270952 29.12518703 -72.79356288 25.04915754 -69 21 C-68.37609375 20.28585937 -67.7521875 19.57171875 -67.109375 18.8359375 C-58.46923119 9.43342806 -46.99337546 3.89272502 -35 0 C-34.25621094 -0.24621094 -33.51242187 -0.49242187 -32.74609375 -0.74609375 C-22.50201435 -3.56467347 -10.13386221 -2.86962118 0 0 Z " fill="#24CD7C" transform="translate(426,333)"/>
<path d="M0 0 C4.26987661 2.27726752 8.12487902 4.78550357 12 7.6875 C56.75388616 40.59656499 114.5267662 54.21485611 169.28125 45.9609375 C171.18872015 45.64797301 173.09502117 45.32778774 175 45 C176.36318359 44.76651855 176.36318359 44.76651855 177.75390625 44.52832031 C193.56758736 41.67844469 208.22220601 36.20865707 223 30 C223.81339844 29.66097656 224.62679687 29.32195313 225.46484375 28.97265625 C242.54411932 21.73872758 258.54343671 11.5832091 273 0 C275.48416047 2.26625166 276.99745023 4.56850685 278.625 7.5 C284.51648273 17.45457428 291.66396235 25.19775128 301 32 C299.45018463 36.50083368 295.80679799 38.79153052 292.125 41.5 C291.42318604 42.02045898 290.72137207 42.54091797 289.99829102 43.07714844 C281.38041521 49.34229993 272.25041529 54.73175679 263 60 C262.32582031 60.38671875 261.65164063 60.7734375 260.95703125 61.171875 C211.36030852 89.39598938 151.14075815 99.5401917 95 90 C94.1646875 89.86609863 93.329375 89.73219727 92.46875 89.59423828 C52.5586905 83.08201536 15.86798566 65.38381051 -16.875 42.125 C-18.04446167 41.3038269 -18.04446167 41.3038269 -19.23754883 40.46606445 C-19.96095459 39.94359131 -20.68436035 39.42111816 -21.4296875 38.8828125 C-22.07147949 38.42277832 -22.71327148 37.96274414 -23.37451172 37.48876953 C-25.19772157 35.81890867 -26.03570323 34.25891518 -27 32 C-25.948125 31.19949219 -25.948125 31.19949219 -24.875 30.3828125 C-13.92340926 21.7822426 -6.98461742 11.85155828 0 0 Z " fill="#FBFBFC" transform="translate(272,598)"/>
<path d="M0 0 C6.00873105 1.33527357 11.06578976 2.55072538 16.5625 5 C17.24159424 5.30196289 17.92068848 5.60392578 18.62036133 5.91503906 C31.79205294 11.97119827 43.4214135 20.13719043 54 30 C54.64501465 30.60118652 55.2900293 31.20237305 55.95458984 31.82177734 C80.75067628 55.20531672 96.32317883 84.52696475 103 118 C103.18022705 118.87285645 103.3604541 119.74571289 103.54614258 120.64501953 C105.11791083 128.97405984 105.35795582 137.16710327 105.3125 145.625 C105.31067719 146.32998627 105.30885437 147.03497253 105.30697632 147.76132202 C105.25913249 158.76836408 104.57364581 169.27478705 102 180 C101.83371094 180.74926758 101.66742187 181.49853516 101.49609375 182.27050781 C99.20456463 192.53570954 96.01127936 202.09337899 91.67895508 211.68334961 C89.82626949 215.80866284 88.4921449 219.44765972 88 224 C96.15815133 230.38526686 104.44625861 236.55004373 112.90576172 242.53198242 C116.5592633 245.13709837 119.96203205 247.66387605 123 251 C122.3709375 251.57105469 121.741875 252.14210938 121.09375 252.73046875 C114.22826456 259.23406867 109.61491856 265.77564794 105 274 C101.27242821 272.31716419 98.04957232 270.01050161 94.75 267.625 C94.1415625 267.18800781 93.533125 266.75101563 92.90625 266.30078125 C87.53769891 262.42713158 82.24790448 258.4511164 76.96386719 254.46337891 C72.68728652 251.24306214 68.3694742 248.09288642 64 245 C57.46609038 240.37099294 51.04087223 235.60722544 44.671875 230.75390625 C42.46538324 229.07744972 40.26106595 227.50642995 37.953125 225.96484375 C35.69763596 224.42732871 33.77671963 223.06953097 32 221 C31.19511991 213.98604489 34.97541045 208.55177755 39 203 C43.31700954 197.69677707 43.31700954 197.69677707 46 196 C49.48538587 196.2418431 51.93207024 198.11481325 54.75 200.0625 C55.54921875 200.61035156 56.3484375 201.15820312 57.171875 201.72265625 C57.77515625 202.14417969 58.3784375 202.56570313 59 203 C66.34192835 194.06200027 68.58058922 181.09361166 71 170 C71.22816406 168.95457031 71.45632813 167.90914062 71.69140625 166.83203125 C77.49515372 135.45932638 69.45189121 102.28416182 51.5625 76.125 C47.42102351 70.36820536 42.89366079 65.1241593 38 60 C37.4121875 59.33742188 36.824375 58.67484375 36.21875 57.9921875 C32.05927935 53.48609429 27.37965377 49.93878424 22.375 46.4375 C21.76068115 46.00252197 21.1463623 45.56754395 20.51342773 45.11938477 C13.91561112 40.63253519 7.32702076 37.66351038 0 34 C0 22.78 0 11.56 0 0 Z " fill="#24CC7B" transform="translate(451,260)"/>
<path d="M0 0 C11.52898116 8.6302659 18.35096893 19.1097337 21.6875 33.0625 C23.23543192 48.54181925 19.62067915 63.50259236 9.89453125 75.86328125 C0.01414438 86.26829044 -12.75468465 92.19444909 -27.1875 92.625 C-41.09901631 92.07075632 -53.4984411 86.30912224 -63 76.1875 C-73.14388066 63.46811289 -76.44586083 49.14373911 -75 33.1875 C-72.51769211 19.46791808 -65.21753356 8.37757422 -54 0.1875 C-36.65558519 -10.12180778 -17.38086713 -10.91913339 0 0 Z " fill="#FBFBFC" transform="translate(228,523.8125)"/>
<path d="M0 0 C0 11.22 0 22.44 0 34 C-2.5575 35.299375 -5.115 36.59875 -7.75 37.9375 C-37.07364566 53.25105284 -57.96862931 79.03539437 -67.875 110.4375 C-68.63983233 112.95930731 -69.35333824 115.44971397 -70 118 C-70.18618896 118.69673828 -70.37237793 119.39347656 -70.56420898 120.11132812 C-72.30847764 127.48859957 -72.33806709 134.86610963 -72.31567383 142.40185547 C-72.31253505 144.60045023 -72.33597112 146.79766636 -72.36132812 148.99609375 C-72.42628323 162.98897176 -70.14999495 175.90974535 -65.4375 189.125 C-65.13392578 190.00414062 -64.83035156 190.88328125 -64.51757812 191.7890625 C-63.94043366 193.45888353 -63.35921032 195.12730321 -62.77294922 196.79394531 C-61.81805518 199.51928407 -60.90373626 202.25731783 -60 205 C-60.88300781 205.6290625 -61.76601563 206.258125 -62.67578125 206.90625 C-70.14570375 212.23235698 -77.5921469 217.58773181 -85 223 C-87.32100767 220.88708832 -88.63498294 219.02772333 -89.8671875 216.1484375 C-90.19307861 215.38829346 -90.51896973 214.62814941 -90.85473633 213.8449707 C-91.19142334 213.02988037 -91.52811035 212.21479004 -91.875 211.375 C-92.22651123 210.52832764 -92.57802246 209.68165527 -92.94018555 208.80932617 C-108.75121621 169.89684469 -109.86249541 125.44850064 -93.91308594 86.33447266 C-88.79693972 74.44444643 -82.7204069 63.38966255 -75 53 C-74.30648438 52.06414062 -73.61296875 51.12828125 -72.8984375 50.1640625 C-57.6624585 30.70537771 -26.98737848 0 0 0 Z " fill="#23CC7B" transform="translate(367,260)"/>
<path d="M0 0 C0.8559375 0.43570313 1.711875 0.87140625 2.59375 1.3203125 C15.51238063 8.44112396 22.0890885 19.04298348 26.9453125 32.6484375 C30.51081512 46.55891957 26.71355557 60.42142847 20.01171875 72.73046875 C13.01216141 84.10644835 2.45220921 90.64787636 -10.32617188 93.86645508 C-22.00932825 96.5063425 -32.99196102 95.37565004 -43.609375 89.57421875 C-45.82401657 88.13618806 -47.91699946 86.62152278 -50 85 C-51.5778125 83.824375 -51.5778125 83.824375 -53.1875 82.625 C-62.27448479 74.1438142 -68.471118 62.27231419 -69.18359375 49.78125 C-69.46489089 34.55811047 -66.48112929 21.03166553 -55.70703125 9.546875 C-52.0669097 6.24827515 -48.20481616 3.53251446 -44 1 C-42.72576172 0.23236328 -42.72576172 0.23236328 -41.42578125 -0.55078125 C-29.34304049 -6.66971559 -11.92605811 -6.40031785 0 0 Z " fill="#FCFBFC" transform="translate(636,522)"/>
<path d="M0 0 C10.46935676 6.90532042 17.7910354 17.12409846 20.984375 29.23828125 C23.54712549 44.35850917 21.00943638 59.19301996 12.04296875 71.8515625 C4.04125861 81.6418902 -6.94187009 87.77136916 -19.4296875 89.6953125 C-33.49961327 90.81810832 -46.31928899 89.74182659 -57.6015625 80.33203125 C-58.20484375 79.79191406 -58.808125 79.25179687 -59.4296875 78.6953125 C-60.42742187 77.86966797 -60.42742187 77.86966797 -61.4453125 77.02734375 C-70.86375255 68.59748042 -75.85375972 56.39822119 -76.67578125 43.9765625 C-77.2324797 30.35611529 -73.35871322 19.072863 -64.6171875 8.50390625 C-59.85629221 3.44545501 -54.61306702 -0.17597151 -48.4296875 -3.3046875 C-47.60984375 -3.71976562 -46.79 -4.13484375 -45.9453125 -4.5625 C-31.07823174 -11.00490166 -13.67502146 -7.65299366 0 0 Z " fill="#FCFCFC" transform="translate(436.4296875,112.3046875)"/>
<path d="M0 0 C8.51669376 5.34992312 14.65995888 13.03761904 17 23 C16.9609375 25.01953125 16.9609375 25.01953125 16 27 C14.07006791 28.61533501 12.21060079 29.98976825 10.125 31.375 C8.85665693 32.2453359 7.58981474 33.11786175 6.32421875 33.9921875 C5.29047119 34.7032666 5.29047119 34.7032666 4.23583984 35.42871094 C1.79734477 37.14242073 -0.59354211 38.91051417 -2.98046875 40.6953125 C-4.24431396 41.64011475 -4.24431396 41.64011475 -5.53369141 42.60400391 C-7.19602223 43.8503508 -8.85593173 45.09993493 -10.51318359 46.35302734 C-11.28355957 46.92746582 -12.05393555 47.5019043 -12.84765625 48.09375 C-13.52836182 48.60615234 -14.20906738 49.11855469 -14.91040039 49.64648438 C-17.18770311 51.12158267 -19.45649614 52.07095729 -22 53 C-22 53.66 -22 54.32 -22 55 C-24.46525483 56.87334959 -26.94178063 58.6362598 -29.5 60.375 C-36.47397133 65.18872132 -43.29148196 70.15859279 -49.99609375 75.34130859 C-54.78761715 79 -54.78761715 79 -57 79 C-58.25038695 77.05995118 -59.4240628 75.07028925 -60.5625 73.0625 C-64.23219359 66.78770263 -68.56812095 61.86605831 -74 57 C-72.54458098 53.46055308 -70.74391536 51.74372828 -67.703125 49.4609375 C-66.83413574 48.80335449 -65.96514648 48.14577148 -65.06982422 47.46826172 C-64.13928223 46.77748535 -63.20874023 46.08670898 -62.25 45.375 C-61.29496582 44.65715332 -60.33993164 43.93930664 -59.35595703 43.19970703 C-53.70353962 38.96587574 -48.01045703 34.79316524 -42.24023438 30.72143555 C-37.3599128 27.27738405 -32.55231363 23.73932693 -27.75 20.1875 C-18.55120377 13.3868845 -9.28820243 6.67783649 0 0 Z " fill="#FAFAFB" transform="translate(319,455)"/>
<path d="M0 0 C3.43379546 1.13672679 6.22493088 3.31543115 9.15698242 5.38085938 C9.85525146 5.86707764 10.55352051 6.3532959 11.27294922 6.85424805 C19.17190968 12.38901242 26.91680358 18.13401395 34.65795898 23.88623047 C37.89238291 26.2851489 41.13732128 28.66962117 44.38232422 31.05419922 C51.30229387 36.14156321 58.20973908 41.24591266 65.09448242 46.38085938 C65.75923584 46.87408691 66.42398926 47.36731445 67.10888672 47.87548828 C69.95675854 50.00625395 72.62236212 52.13843415 75.09448242 54.69335938 C74.15088867 55.54994141 74.15088867 55.54994141 73.18823242 56.42382812 C66.32274698 62.92742804 61.70940098 69.46900731 57.09448242 77.69335938 C53.36691063 76.01052357 50.14405475 73.70386099 46.84448242 71.31835938 C46.23604492 70.88136719 45.62760742 70.444375 45.00073242 69.99414062 C39.63218133 66.12049095 34.3423869 62.14447577 29.05834961 58.15673828 C24.78176894 54.93642151 20.46395662 51.7862458 16.09448242 48.69335938 C9.5605728 44.06435231 3.13535465 39.30058482 -3.23364258 34.44726562 C-5.44013434 32.77080909 -7.64445163 31.19978932 -9.95239258 29.65820312 C-12.20788161 28.12068808 -14.12879795 26.76289034 -15.90551758 24.69335938 C-16.71039767 17.67940426 -12.93010713 12.24513693 -8.90551758 6.69335938 C-3.05649756 -0.49185918 -3.05649756 -0.49185918 0 0 Z " fill="#FAFAFB" transform="translate(498.905517578125,456.306640625)"/>
<path d="M0 0 C2.31 0.33 4.62 0.66 7 1 C15.25 1 23.5 1 32 1 C32 25.75 32 50.5 32 76 C24.11126172 78.25392522 24.11126172 78.25392522 20.37109375 78.265625 C19.56349609 78.26820313 18.75589844 78.27078125 17.92382812 78.2734375 C16.6930957 78.26183594 16.6930957 78.26183594 15.4375 78.25 C14.2009668 78.26160156 14.2009668 78.26160156 12.93945312 78.2734375 C12.13314453 78.27085937 11.32683594 78.26828125 10.49609375 78.265625 C9.77607178 78.26336914 9.0560498 78.26111328 8.31420898 78.25878906 C6 78 6 78 0 76 C0 50.92 0 25.84 0 0 Z " fill="#FCFBFC" transform="translate(393,225)"/>
<path d="M0 0 C3.07864729 0.62305957 4.82094078 2.18554315 6.96875 4.3984375 C8.75632093 7.97357937 8.06995618 11.64938726 6.96875 15.3984375 C4.96227828 18.10774112 2.48275495 20.16884523 -0.03125 22.3984375 C-1.07285336 23.54659875 -2.09307624 24.71443419 -3.09375 25.8984375 C-6.62959015 30.0035399 -10.32455677 33.9484366 -14.03125 37.8984375 C-18.15806079 42.2990118 -22.23998267 46.71584667 -26.17578125 51.2890625 C-28.84969554 54.32888085 -31.59672576 57.29972102 -34.34375 60.2734375 C-34.87242676 60.84594238 -35.40110352 61.41844727 -35.94580078 62.00830078 C-41.84137763 68.37628572 -41.84137763 68.37628572 -45.78125 68.8359375 C-49.592784 68.71918781 -51.73808738 67.69208818 -54.55615234 65.00292969 C-56.14341604 63.27643233 -57.67259989 61.51024672 -59.1953125 59.7265625 C-63.696638 54.55651256 -68.59289669 49.81743494 -73.50976562 45.046875 C-74.19361328 44.37398438 -74.87746094 43.70109375 -75.58203125 43.0078125 C-76.19731689 42.40936523 -76.81260254 41.81091797 -77.4465332 41.19433594 C-80.09324512 38.19491939 -80.96282224 35.93608421 -81.46875 31.9609375 C-80.92007608 27.49316418 -79.42933207 26.21635921 -76.03125 23.3984375 C-75.70125 23.0684375 -75.37125 22.7384375 -75.03125 22.3984375 C-70.74137962 21.89961536 -68.2985423 22.50611037 -64.77709961 24.9699707 C-61.06170392 28.00993437 -57.89464637 31.61723856 -54.65625 35.1484375 C-53.92019531 35.94121094 -53.18414062 36.73398437 -52.42578125 37.55078125 C-50.62208896 39.49502099 -48.82416722 41.44426609 -47.03125 43.3984375 C-43.03865302 40.07491216 -39.26465747 36.76212871 -35.84375 32.8359375 C-32.28855105 28.80832711 -28.68477017 24.83646019 -25.03125 20.8984375 C-20.62957369 16.14711162 -16.27596234 11.35698753 -11.96875 6.51953125 C-11.329375 5.81957031 -10.69 5.11960937 -10.03125 4.3984375 C-9.03931641 3.28662109 -9.03931641 3.28662109 -8.02734375 2.15234375 C-5.4579897 -0.10526871 -3.35889658 -0.16293155 0 0 Z " fill="#F8FCFA" transform="translate(446.03125,377.6015625)"/>
<path d="M0 0 C0 4.15560231 -2.2820452 5.84099329 -5 8.6875 C-5.47695312 9.19861328 -5.95390625 9.70972656 -6.4453125 10.23632812 C-7.62359915 11.49709484 -8.81095253 12.74937686 -10 14 C-10.66 13.67 -11.32 13.34 -12 13 C-10.56354149 11.39490066 -9.12579294 9.79095576 -7.6875 8.1875 C-6.88699219 7.29417969 -6.08648437 6.40085938 -5.26171875 5.48046875 C-3.54775419 3.60073214 -1.82122396 1.77407253 0 0 Z " fill="#222A47" transform="translate(252,238)"/>
<path d="M0 0 C0 3 0 3 -1.3125 4.38671875 C-2.875 5.59114583 -4.4375 6.79557292 -6 8 C-6.66 7.67 -7.32 7.34 -8 7 C-5.36 4.69 -2.72 2.38 0 0 Z " fill="#052238" transform="translate(339,310)"/>
<path d="M0 0 C0 3 0 3 -1.3125 4.38671875 C-2.875 5.59114583 -4.4375 6.79557292 -6 8 C-6.66 7.34 -7.32 6.68 -8 6 C-5.36 4.02 -2.72 2.04 0 0 Z " fill="#192446" transform="translate(572,632)"/>
<path d="M0 0 C-0.33 0.99 -0.66 1.98 -1 3 C-3.06640625 3.73046875 -3.06640625 3.73046875 -5.5625 4.1875 C-6.38878906 4.34605469 -7.21507812 4.50460937 -8.06640625 4.66796875 C-9.02353516 4.83232422 -9.02353516 4.83232422 -10 5 C-3.63636364 0 -3.63636364 0 0 0 Z " fill="#1CC074" transform="translate(384,336)"/>
</svg>
